<svg width="300" height="50" fill="none" xmlns="http://www.w3.org/2000/svg"><g style="mix-blend-mode:darken" fill="#000"><path d="M0 49.105v-.412c6.182 0 6.182-3.024 6.182-11.953V13.392c0-8.929 0-11.95-6.182-11.95V1.03h22.32v37.775c0 7.553 0 9.89 5.494 9.89v.412H0v-.002Zm32.751-8.652c-1.581-5.702-2.403-15.488-6.248-15.488h-.483v-.48h.274c6.389 0 8.243-4.98 8.243-11.503 0-6.525-1.168-11.538-8.517-11.538V1.03c11.813-.137 24.999.275 24.999 11.95 0 10.44-13.461 11.195-22.662 11.744v.137c9.476 0 15.589 1.168 18.816 6.594 4.603 7.762 5.084 17.377 10.783 16.414v.414c-3.092 1.099-8.036 1.373-11.057 1.373-7.004-.002-12.02-1.65-14.148-9.203ZM68.794 49.105v-.412c6.182 0 6.182-3.296 6.182-11.952V13.392c0-8.652 0-11.95-6.182-11.95V1.03h28.5v.414c-6.18 0-6.18 3.296-6.18 11.95v23.351c0 8.654 0 11.952 6.18 11.952v.412h-28.5v-.004ZM149.21 49.105 122.77 9.547c-3.367-5.015-6.114-7.451-9.959-8.103V1.03h22.595l24.793 37.086v10.989H149.21Zm-36.399 0v-.412c7.004 0 9.201-21.876 9.201-26.684h.414c0 4.808 2.197 26.684 9.547 26.684v.412h-19.162ZM180.374 49.105v-.412c6.179 0 6.179-3.024 6.179-11.952V13.392c0-8.929 0-11.95-6.179-11.95V1.03h22.323v37.775c0 7.553-.001 9.613 3.433 9.89v.412h-25.756v-.002Zm27.816-.412c6.18 0 8.377-5.77 8.377-23.626 0-17.857-2.197-23.625-11.813-23.625V1.03c21.36-.137 28.64 7.897 28.64 24.04 0 13.801-7.28 24.174-25.204 24.037v-.414ZM255.29 34.475c-1.511 6.248-1.44 14.218 5.015 14.218v.412h-19.366v-.412c6.523 0 11.744-9.478 13.941-14.218h.41Zm33.721 2.268c4.464 8.926 7.004 11.952 10.989 11.952v.412h-29.19v-.412c5.7 0 3.708-5.702 1.511-10.167l-3.347-6.9h-12.69l.275-.618h12.116l-6.242-12.876L270.675 0l18.336 36.743Z"/><path d="M256.189 31.965h16.642l-1.666-2.598h-14.01l-.966 2.598ZM168.521 1.028v.412c-7.004 0-9.201 21.876-9.201 26.684h-.415c0-4.808-2.197-26.684-9.546-26.684v-.412h19.162Z"/></g></svg>